<svg id="Layer_1" xmlns="http://www.w3.org/2000/svg" viewBox="0 0 1000 1000"><style>.st0{fill:#374649}.st1{fill:#23a0c8}.st2{fill:#38b1d9}.st3{fill:#1f82a6}.st4{fill:#1c92b5}.st5{fill:#23a3c2}.st6{fill:#35bcdf}.st7{fill:#d3edec}.st8{fill:#bedad8}</style><path class="st0" d="M577.1 396.8H665v89.8h44.4c20.5 0 41.6-3.7 61-10.2 9.5-3.2 20.3-7.7 29.7-13.4-12.4-16.2-18.7-36.6-20.6-56.8-2.5-27.4 3-63.1 21.5-84.5l9.2-10.7 11 8.8c27.7 22.3 51 53.4 55.1 88.8 33.4-9.8 72.5-7.5 101.9 9.5l12.1 7-6.3 12.4c-24.9 48.5-76.9 63.6-127.7 60.9-76.1 189.5-241.7 279.2-442.5 279.2-103.7 0-198.9-38.8-253.1-130.8l-.9-1.5-7.9-16.1c-18.3-40.5-24.4-84.9-20.3-129.2l1.2-13.3h75.1v-89.8h87.9V309h175.7v-87.9h105.4v175.7"/><path class="st1" d="M861.7 430c5.9-45.8-28.4-81.7-49.6-98.8-24.5 28.3-28.3 102.5 10.1 133.7-21.4 19-66.6 36.3-112.9 36.3h-563c-4.5 48.3 4 92.8 23.3 130.8l6.4 11.7c4.1 6.9 8.5 13.5 13.3 19.9 23.1 1.5 44.5 2 64 1.6 38.4-.8 69.7-5.4 93.4-13.6 3.6-1.1 7.4.9 8.5 4.5 1.1 3.4-.7 7.1-4 8.3-3.2 1.1-6.4 2.1-9.8 3.1-18.7 5.3-38.7 8.9-64.6 10.5 1.5 0-1.6.2-1.6.2-.9.1-2 .2-2.9.2-10.2.6-21.2.7-32.4.7-12.3 0-24.4-.2-37.9-.9l-.3.2c46.9 52.7 120.3 84.4 212.2 84.4 194.6 0 359.7-86.3 432.8-279.9 51.9 5.3 101.7-7.9 124.4-52.2-36.2-20.7-82.6-14.1-109.4-.7"/><path class="st2" d="M861.7 430c5.9-45.8-28.4-81.7-49.6-98.8-24.5 28.3-28.3 102.5 10.1 133.7-21.4 19-66.6 36.3-112.9 36.3H179.6c-2.3 73.9 25.1 130.1 73.7 164 38.4-.8 69.7-5.4 93.4-13.6 3.6-1.1 7.4.9 8.5 4.5 1.1 3.4-.7 7.1-4 8.3-3.2 1.1-6.4 2.1-9.8 3.1-18.7 5.3-40.4 9.4-66.3 11l-.6-.6c66.2 34 162.3 33.9 272.4-8.4 123.5-47.4 238.3-137.8 318.5-241.1-1.4.5-2.5 1.1-3.7 1.6"/><path class="st3" d="M147.4 559.9c3.5 25.9 11.1 50.1 22.3 72.1l6.4 11.7c4.1 6.9 8.5 13.5 13.3 19.9 23.2 1.5 44.5 2 64 1.6 38.4-.8 69.7-5.4 93.4-13.6 3.6-1.1 7.4.9 8.5 4.5 1.1 3.4-.7 7.1-4 8.3-3.2 1.1-6.4 2.1-9.8 3.1-18.7 5.3-40.3 9.2-66.2 10.8-.9.1-2.4.1-3.3.1-10.2.6-21 .9-32.3.9-12.3 0-24.8-.2-38.3-.9 46.9 52.7 120.7 84.5 212.7 84.5 166.6 0 311.5-63.2 395.7-203H147.4"/><path class="st4" d="M184.7 559.9c10 45.4 33.9 81.1 68.6 105.3 38.4-.8 69.7-5.4 93.4-13.6 3.6-1.1 7.4.9 8.5 4.5 1.1 3.4-.7 7.1-4 8.3-3.2 1.1-6.4 2.1-9.8 3.1-18.7 5.3-40.8 9.2-66.6 10.8 66.2 34 162 33.5 272.1-8.8 66.6-25.6 130.7-63.7 188.2-109.6H184.7"/><path class="st5" d="M222.7 411.5h76.1v76.1h-76.1v-76.1zm6.4 6.3h6v63.5h-6v-63.5zm11.3 0h6.3v63.5h-6.2l-.1-63.5zm11.5 0h6.3v63.5h-6.3v-63.5zm11.5 0h6.2v63.5h-6.2v-63.5zm11.6 0h6.2v63.5H275v-63.5zm11.5 0h6v63.5h-6v-63.5zm24.1-94.2h76.2v76.1h-76.2v-76.1zm6.3 6.4h6v63.5h-6V330zm11.3 0h6.2v63.5h-6.2V330zm11.6 0h6.2v63.5h-6.2V330zm11.5 0h6.2v63.5h-6.2V330zm11.5 0h6.3v63.5h-6.3V330zm11.6 0h6v63.5h-6V330z"/><path class="st6" d="M310.6 411.5h76.2v76.1h-76.2v-76.1zm6.3 6.3h6v63.5h-6v-63.5zm11.3 0h6.2v63.5h-6.2v-63.5zm11.6 0h6.2v63.5h-6.2v-63.5zm11.5 0h6.2v63.5h-6.2v-63.5zm11.5 0h6.3v63.5h-6.3v-63.5zm11.6 0h6v63.5h-6v-63.5z"/><path class="st5" d="M398.4 411.5h76.1v76.1h-76.1v-76.1zm6.4 6.3h6v63.5h-6v-63.5zm11.3 0h6.2v63.5h-6.2v-63.5zm11.5 0h6.2v63.5h-6.2v-63.5zm11.6 0h6.2v63.5h-6.2v-63.5zm11.5 0h6.3v63.5h-6.3v-63.5zm11.5 0h6v63.5h-6v-63.5z"/><path class="st6" d="M398.4 323.6h76.1v76.1h-76.1v-76.1zm6.4 6.4h6v63.5h-6V330zm11.3 0h6.2v63.5h-6.2V330zm11.5 0h6.2v63.5h-6.2V330zm11.6 0h6.2v63.5h-6.2V330zm11.5 0h6.3v63.5h-6.3V330zm11.5 0h6v63.5h-6V330zm24.1 81.5h76.1v76.1h-76.1v-76.1zm6.3 6.3h6v63.5h-6v-63.5zm11.3 0h6.2v63.5h-6.2v-63.5zm11.6 0h6.2v63.5h-6.2v-63.5zm11.5 0h6.3v63.5H527v-63.5zm11.6 0h6.3v63.5h-6.3v-63.5zm11.5 0h6v63.5h-6v-63.5z"/><path class="st5" d="M486.3 323.6h76.1v76.1h-76.1v-76.1zm6.3 6.4h6v63.5h-6V330zm11.3 0h6.2v63.5h-6.2V330zm11.6 0h6.2v63.5h-6.2V330zm11.5 0h6.3v63.5H527V330zm11.6 0h6.3v63.5h-6.3V330zm11.5 0h6v63.5h-6V330z"/><path class="st6" d="M486.3 235.7h76.1v76.2h-76.1v-76.2zm6.3 6.4h6v63.5h-6v-63.5zm11.3 0h6.2v63.5h-6.2v-63.5zm11.6 0h6.2v63.5h-6.2v-63.5zm11.5 0h6.3v63.5H527v-63.5zm11.6 0h6.3v63.5h-6.3v-63.5zm11.5 0h6v63.5h-6v-63.5z"/><path class="st5" d="M574.2 411.5h76.1v76.1h-76.1v-76.1zm6.3 6.3h6v63.5h-6v-63.5zm11.3 0h6.3v63.5h-6.2l-.1-63.5zm11.5 0h6.3v63.5h-6.3v-63.5zm11.6 0h6.3v63.5h-6.3v-63.5zm11.5 0h6.2v63.5h-6.2v-63.5zm11.5 0h6v63.5h-6v-63.5z"/><path class="st7" d="M382 611.1c11.6-.2 21.1 9.1 21.3 20.7.2 11.6-9.1 21.1-20.7 21.3h-.6c-11.6-.2-20.9-9.7-20.7-21.3.1-11.4 9.3-20.6 20.7-20.7"/><path class="st0" d="M382 617c1.9 0 3.8.4 5.4 1-2.9 1.7-3.9 5.5-2.2 8.4 1.1 1.9 3.1 3.1 5.3 3.1 2.3 0 4.3-1.3 5.4-3.2 3.2 7.7-.5 16.5-8.1 19.7-7.7 3.2-16.5-.5-19.7-8.1-3.2-7.7.5-16.5 8.1-19.7 1.8-.8 3.8-1.2 5.8-1.2M10.4 567.5h977.2c-21.3-5.4-67.3-12.7-59.7-40.6-38.7 44.8-132 31.4-155.5 9.3-26.2 38-178.9 23.6-189.5-6.1-32.9 38.6-134.7 38.6-167.6 0-10.7 29.6-163.3 44.1-189.5 6.1-23.5 22.1-116.8 35.4-155.5-9.3 7.4 27.9-38.6 35.2-59.9 40.6"/><path class="st8" d="M437.8 762.4c-52-24.7-80.6-58.2-96.5-94.9-19.3 5.5-42.6 9-69.5 10.6-10.2.6-20.9.9-32.1.9-12.9 0-26.6-.4-40.9-1.1 47.7 47.7 106.4 84.4 215.1 85.1 8-.1 16-.3 23.9-.6"/><path class="st7" d="M360.7 701.4c-7.2-9.8-14.2-22.1-19.3-33.8-19.3 5.5-42.6 9-69.6 10.6 18.5 10 45.1 19.3 88.9 23.2"/></svg>