<svg xmlns="http://www.w3.org/2000/svg" width="127.299" height="144.714" viewBox="0 0 127.299 144.714"><linearGradient id="a" gradientUnits="userSpaceOnUse" x1="45.469" y1="125.058" x2="22.047" y2="84.491" gradientTransform="rotate(37.418 69.035 72.8)"><stop offset="0" stop-color="#3c88a6"/><stop offset="1" stop-color="#57beeb"/></linearGradient><path fill="url(#a)" d="M.258 90.679a5.89 5.89 0 0 0 7.837 7.18c6.236-2.521 14.413-4.461 22.309-2.241 3.762-16.2 8.725-29.391 13.478-39.573C32.637 55.821 9.795 59.483.258 90.679z"/><linearGradient id="b" gradientUnits="userSpaceOnUse" x1="114.759" y1="129.155" x2="87.368" y2="81.713" gradientTransform="rotate(37.418 69.035 72.8)"><stop offset="0" stop-color="#3c88a6"/><stop offset="1" stop-color="#57beeb"/></linearGradient><path fill="url(#b)" d="M91.841 92.8c-8.578 7.232-19.997 15.463-34.632 23.309 4.147 7.025 4.399 15.384 3.611 22.028a5.875 5.875 0 0 0 2.695 5.671 5.892 5.892 0 0 0 6.282-.001C97.272 126.536 94.96 103.652 91.841 92.8z"/><linearGradient id="c" gradientUnits="userSpaceOnUse" x1="74.31" y1="135.692" x2="64.276" y2="118.314" gradientTransform="rotate(37.418 69.035 72.8)"><stop offset="0" stop-color="#3c88a6"/><stop offset="1" stop-color="#57beeb"/></linearGradient><path fill="url(#c)" d="M31.397 105.25l16.566 12.675-6.762 8.839-16.566-12.675z"/><linearGradient id="d" gradientUnits="userSpaceOnUse" x1="100.302" y1="109.69" x2="37.194" y2=".384" gradientTransform="rotate(37.418 69.035 72.8)"><stop offset="0" stop-color="#3c88a6"/><stop offset="1" stop-color="#57beeb"/></linearGradient><path fill="url(#d)" d="M110.511 71.713c20.737-26.545 17.166-52.145 15.355-65.243-.576-4.091-4.363-6.994-8.521-6.392-12.914 1.894-37.944 5.574-58.069 32.43 0 0-20.168 23.598-29.298 70.218l10.039 7.681.35.268 10.043 7.685c42.596-21.01 60.101-46.647 60.101-46.647zm-7.328-43.128a3.365 3.365 0 0 1 1.031 1.304 3.39 3.39 0 0 1-.4 3.438 3.35 3.35 0 0 1-1.921 1.238 3.378 3.378 0 0 1-3.852-1.91 3.387 3.387 0 0 1 .399-3.439 3.37 3.37 0 0 1 2.565-1.323 3.365 3.365 0 0 1 2.178.692zM90.747 41.73a3.354 3.354 0 0 1 1.853.688 3.373 3.373 0 0 1 1.324 2.565 3.366 3.366 0 0 1-.692 2.178c-.213.278-.46.513-.731.706a3.391 3.391 0 0 1-4.895-1.085 3.406 3.406 0 0 1-.44-1.554 3.367 3.367 0 0 1 .692-2.178 3.385 3.385 0 0 1 2.889-1.32zM77.906 61.628a3.388 3.388 0 0 1-.631-4.743c1.133-1.482 3.261-1.765 4.742-.631s1.764 3.26.631 4.742a3.388 3.388 0 0 1-4.742.632z"/><linearGradient id="e" gradientUnits="userSpaceOnUse" x1="78.36" y1="156.935" x2="63.068" y2="130.449" gradientTransform="rotate(37.418 69.035 72.8)"><stop offset="0" stop-color="#3c88a6"/><stop offset="1" stop-color="#57beeb"/></linearGradient><path fill="url(#e)" d="M40.827 126.54l-3.973-3.037c-.006.03-1.083 5.664-4.611 7.603 0 0 .635-2.679.475-3.456a1.048 1.048 0 0 0-.178-.4c-.64-.914-2.731 3.685-8.627 4.951-.323-6.022 3.569-9.243 2.518-9.625a1.094 1.094 0 0 0-.434-.064c-.79.048-3.212 1.362-3.212 1.362.947-3.904 6.082-6.419 6.129-6.441l-3.968-3.033s-8.416 4.698-10.315 12.543c0 0 2.893-2.289 4.477-2.387.271-.014.56.023.869.135 2.097.761-5.686 7.206-5.042 19.249 11.791-2.533 15.974-11.732 17.256-9.907.189.268.3.537.358.803.32 1.552-1.132 4.945-1.132 4.945 7.073-3.889 9.41-13.241 9.41-13.241z"/></svg>