<svg xmlns="http://www.w3.org/2000/svg" xmlns:xlink="http://www.w3.org/1999/xlink" width="107.978" height="180.24" viewBox="0 0 107.978 180.24"><defs><path id="a" d="M58.697 63.698h40.404v26.411H58.697z"/></defs><clipPath id="b"><use xlink:href="#a" overflow="visible"/></clipPath><g clip-path="url(#b)"><defs><path id="c" d="M99.102 82.16L67.36 63.698l-8.663 5.054 37.114 21.357"/></defs><clipPath id="d"><use xlink:href="#c" overflow="visible"/></clipPath><linearGradient id="e" gradientUnits="userSpaceOnUse" x1="-900.505" y1="642.554" x2="-899.529" y2="642.554" gradientTransform="scale(23.244 -23.244) rotate(-62.559 -979.774 -423.745)"><stop offset="0" stop-color="#94d5e7"/><stop offset=".744" stop-color="#fff"/><stop offset="1" stop-color="#fff"/></linearGradient><path clip-path="url(#d)" fill="url(#e)" d="M90.521 47.174l19.383 37.327-42.623 22.133-19.384-37.325z"/></g><defs><path id="f" d="M58.754 122.185h40.348v26.092H58.754z"/></defs><clipPath id="g"><use xlink:href="#f" overflow="visible"/></clipPath><g clip-path="url(#g)"><defs><path id="h" d="M99.102 140.39l-31.785-18.205-8.563 4.982 36.946 21.11"/></defs><clipPath id="i"><use xlink:href="#h" overflow="visible"/></clipPath><linearGradient id="j" gradientUnits="userSpaceOnUse" x1="-900.513" y1="642.686" x2="-899.536" y2="642.686" gradientTransform="scale(23.0428 -23.0428) rotate(-62.559 -982.168 -425.306)"><stop offset="0" stop-color="#94d5e7"/><stop offset=".744" stop-color="#fff"/><stop offset="1" stop-color="#fff"/></linearGradient><path clip-path="url(#i)" fill="url(#j)" d="M90.533 105.685l19.239 37.051-42.452 22.041-19.236-37.047z"/></g><defs><path id="k" d="M58.697 63.698h40.404v26.411H58.697z"/></defs><clipPath id="l"><use xlink:href="#k" overflow="visible"/></clipPath><g clip-path="url(#l)"><defs><path id="m" d="M99.102 82.16L67.36 63.698l-8.663 5.054 37.114 21.357"/></defs><clipPath id="n"><use xlink:href="#m" overflow="visible"/></clipPath><linearGradient id="o" gradientUnits="userSpaceOnUse" x1="-900.505" y1="642.554" x2="-899.529" y2="642.554" gradientTransform="scale(23.244 -23.244) rotate(-62.559 -979.774 -423.745)"><stop offset="0" stop-color="#94d5e7"/><stop offset=".744" stop-color="#fff"/><stop offset="1" stop-color="#fff"/></linearGradient><path clip-path="url(#n)" fill="url(#o)" d="M90.521 47.174l19.383 37.327-42.623 22.133-19.384-37.325z"/></g><defs><path id="p" d="M58.754 122.185h40.348v26.092H58.754z"/></defs><clipPath id="q"><use xlink:href="#p" overflow="visible"/></clipPath><g clip-path="url(#q)"><defs><path id="r" d="M99.102 140.39l-31.785-18.205-8.563 4.982 36.946 21.11"/></defs><clipPath id="s"><use xlink:href="#r" overflow="visible"/></clipPath><linearGradient id="t" gradientUnits="userSpaceOnUse" x1="-900.513" y1="642.686" x2="-899.536" y2="642.686" gradientTransform="scale(23.0428 -23.0428) rotate(-62.559 -982.168 -425.306)"><stop offset="0" stop-color="#94d5e7"/><stop offset=".744" stop-color="#fff"/><stop offset="1" stop-color="#fff"/></linearGradient><path clip-path="url(#s)" fill="url(#t)" d="M90.533 105.685l19.239 37.051-42.452 22.041-19.236-37.047z"/></g><defs><path id="u" d="M8.875 98.517l36.062 20.83-36.062 21.014V98.517zm43.488 72.346l-39.054-22.602 85.796-50.199v42.328l-31.788-18.205-8.563 4.982 36.946 21.11-38.645 22.586c-.413.242-1.228.501-2.332.501s-1.944-.259-2.36-.501M8.875 40.288L44.938 61.12 8.875 82.131V40.288zm3.93 50.04l86.3-50.496V82.16L67.36 63.698l-8.663 5.054L95.81 90.109l-41.309 24.094-41.696-23.875zm.468-58.17l39.09-22.836c.416-.243 1.256-.501 2.36-.501s1.944.258 2.358.501l38.693 22.605-41.272 24.046-41.229-23.815zM47.792 1.659L7.12 25.236C3.243 27.5 0 32.592 0 37.08v106.025c0 4.488 3.287 9.58 7.164 11.847L47.7 178.529c1.893 1.105 4.414 1.711 6.932 1.711 2.516 0 4.988-.605 6.881-1.711l40.013-23.577c3.873-2.267 6.452-7.358 6.452-11.847V37.08c0-4.488-2.554-9.579-6.43-11.843L61.376 1.659C59.483.552 57.033 0 54.583 0c-2.448 0-4.898.552-6.791 1.659"/></defs><clipPath id="v"><use xlink:href="#u" overflow="visible"/></clipPath><linearGradient id="w" gradientUnits="userSpaceOnUse" x1="-906.766" y1="634.076" x2="-905.789" y2="634.076" gradientTransform="matrix(0 89.353 89.353 0 -56602.645 81079.79)"><stop offset="0" stop-color="#55c8f3"/><stop offset=".285" stop-color="#52c6f2"/><stop offset=".485" stop-color="#49c0ee"/><stop offset=".659" stop-color="#39b5e7"/><stop offset=".819" stop-color="#24a5dd"/><stop offset=".967" stop-color="#0791d0"/><stop offset="1" stop-color="#008ccd"/></linearGradient><path clip-path="url(#v)" fill="url(#w)" d="M0 0h107.978v180.24H0z"/><g opacity=".25"><defs><path id="x" d="M8.875 32.158h45.626v28.961H8.875z"/></defs><clipPath id="y"><use xlink:href="#x" overflow="visible"/></clipPath><g clip-path="url(#y)"><defs><path id="z" d="M8.875 40.288L44.938 61.12l9.564-5.147-41.226-23.815z"/></defs><clipPath id="A"><use xlink:href="#z" overflow="visible"/></clipPath><linearGradient id="B" gradientUnits="userSpaceOnUse" x1="-902.429" y1="636.378" x2="-901.451" y2="636.378" gradientTransform="scale(43.652 -43.652) rotate(-53.454 -1083.554 -578.63)"><stop offset="0" stop-color="#fff"/><stop offset=".256" stop-color="#fff"/><stop offset=".717" stop-color="#008cb4"/><stop offset=".769" stop-color="#0088b0"/><stop offset=".817" stop-color="#007da5"/><stop offset=".862" stop-color="#006b93"/><stop offset=".907" stop-color="#005179"/><stop offset=".951" stop-color="#002f58"/><stop offset=".994" stop-color="#000730"/><stop offset="1" stop-color="#000029"/></linearGradient><path clip-path="url(#A)" fill="url(#B)" d="M38.322 10.33l30.033 40.521-43.302 32.096-30.034-40.519z"/></g></g></svg>