<svg xmlns="http://www.w3.org/2000/svg" width="4369.581" height="1158.025" viewBox="0 0 4369.581 1158.025"><path fill="#c0dfab" d="M494.033 157.996l99.189-22.628"/><g fill="none" stroke-width="50" stroke-miterlimit="10"><path d="M88.498 562.295c.114-3.749.267-7.502.457-11.265 8.542-168.869 91.838-316.242 216.231-411.697M171.553 871.276c-49.794-80.037-79.65-173.455-83.002-272.989" stroke="#aa75b2"/><path d="M568.868 1128.162c-144.026-19.082-269.508-92.983-356.112-199.21m677.101 145.756c-82.615 41.364-176.732 62.598-275.595 57.597a543.663 543.663 0 0 1-8.22-.476" stroke="#5468b0"/><path d="M981.67 141.108c-47.003-36.498-100.127-65.64-157.721-85.602M375.437 93.407c87.102-47.965 188.189-73.078 294.795-67.687 40.924 2.07 80.585 8.531 118.552 18.903" stroke="#27aae1"/></g><g fill="none" stroke-width="50" stroke-miterlimit="10"><path d="M932.672 243.977c-95.799-82.734-225.922-124.492-360.816-103.638-.777.12-1.554.243-2.329.366M332.188 257.991c55.131-52.449 124.104-91.324 202.244-110.247" stroke="#8dc63f"/><path d="M283.906 852.794c-43.588-57.308-73.929-125.99-85.703-202.146a457.12 457.12 0 0 1-1.708-12.135m96.83-338.519c-67.429 82.895-105.099 189.537-99.972 302.124" stroke="#f7941e"/><path d="M937.044 916.164c-.82.721-1.645 1.438-2.468 2.152-49.108 42.496-106.311 73.14-167.127 90.896-1.682.491-3.365.973-5.052 1.443M318.413 888.874c25.259 26.415 54.189 50.141 86.609 70.392 90.037 56.239 192.341 76.529 290.125 64.754a448.729 448.729 0 0 0 42.714-7.246" stroke="#ef4136"/></g><path d="M576.627 734.885v-333.5h175.5c63.5 0 96 40.5 96 85 0 41.5-26 70-57.5 76.5 36 5.5 64 40 64 81.5 0 50.5-33 90.5-97 90.5h-181zm199-236c0-20.5-15-35-39-35h-89v70h89c24 0 39-13.5 39-35zm6.5 135.5c0-21-15-38-42.5-38h-92v76h92c26.5 0 42.5-14 42.5-38zm108.997-20.5c0-70 52-126.5 125-126.5 72.5 0 121 54 121 132.5v15h-179.5c4.5 29.5 28.5 54 69.5 54 20.5 0 48.5-8.5 64-23.5l28.5 42c-24 22-62 33.5-99.5 33.5-73.5 0-129-49.5-129-127zm125-74.5c-39.5 0-56.5 27.5-59 51.5h119c-2-23-18-51.5-60-51.5zm311.997 195.5v-25.5c-16.5 20-45 31.5-76.5 31.5-38.5 0-83.5-26-83.5-80 0-57 45-78 83.5-78 32.5 0 60.5 10.5 76.5 29.5v-30.5c0-24.5-21-40.5-53-40.5-25.5 0-49.5 10-69.5 28.5l-25-44.5c29.5-26.5 67.5-38 105.5-38 55.5 0 106 22 106 91.5v156h-64zm0-58v-30c-10.5-14-30.5-21.5-51-21.5-25 0-45.5 13.5-45.5 36.5s20.5 36 45.5 36c20.5 0 40.5-7 51-21zm111-63c0-74 54-126.5 128-126.5 49.5 0 79.5 21.5 95.5 43.5l-41.5 39c-11.5-17-29-26-51-26-38.5 0-65.5 28-65.5 70s27 70.5 65.5 70.5c22 0 39.5-10 51-26.5l41.5 39c-16 22-46 44-95.5 44-74 0-128-52.5-128-127zm249.496 0c0-68.5 48-126.5 127.5-126.5 80 0 128 58 128 126.5s-48 127-128 127c-79.5 0-127.5-58.5-127.5-127zm189.5 0c0-37.5-22-70-62-70-39.5 0-61.5 32.5-61.5 70 0 38 22 70.5 61.5 70.5 40 0 62-32.5 62-70.5zm276.498 121v-146c0-33.5-17.5-45-44.5-45-25 0-44 14-55 28v163h-63.5v-241.5h63.5v31c15.5-18 45.5-37 84.5-37 53.5 0 79 30 79 77v170.5h-64zm486.492 0l-159-217.5v217.5h-71v-333.5h73l154.5 209.5v-209.5h71v333.5h-68.5zm117.495-121c0-70 52-126.5 125-126.5 72.5 0 121 54 121 132.5v15h-179.5c4.5 29.5 28.5 54 69.5 54 20.5 0 48.5-8.5 64-23.5l28.5 42c-24 22-62 33.5-99.5 33.5-73.5 0-129-49.5-129-127zm125-74.5c-39.5 0-56.5 27.5-59 51.5h119c-2-23-18-51.5-60-51.5zm179.997 135v-125.5h-40v-55.5h40v-66h63.5v66h49v55.5h-49v108.5c0 15.5 8 27 22 27 9.5 0 18.5-3.5 22-7.5l13.5 48.5c-9.5 8.5-26.5 15.5-53 15.5-44.5 0-68-23-68-66.5zm367.999 60.5l-51-164.5-51 164.5h-68l-73.5-241.5h66l45 162.5 53-162.5h56.5l53 162.5 45-162.5h66.5l-73.5 241.5h-68zm157.494-121c0-68.5 48-126.5 127.5-126.5 80 0 128 58 128 126.5s-48 127-128 127c-79.5 0-127.5-58.5-127.5-127zm189.5 0c0-37.5-22-70-62-70-39.5 0-61.5 32.5-61.5 70 0 38 22 70.5 61.5 70.5 40 0 62-32.5 62-70.5zm113.498 121v-241.5h63.5v32.5c17.5-21 47-38.5 77-38.5v62c-4.5-1-10-1.5-17.5-1.5-21 0-49 12-59.5 27.5v159.5h-63.5zm336.493 0l-64-93-29 31v62h-63.5v-333.5h63.5v199.5l91.5-107.5h78l-95.5 109.5 98.5 132h-79.5z" fill="#434343"/></svg>