<svg xmlns="http://www.w3.org/2000/svg" width="2040.97" height="1273.347" viewBox="113.386 7271.363 2040.97 1273.347"><path d="M2054.985 7271.363H212.735c-54.788 0-99.349 44.561-99.349 99.326v1074.672c0 54.766 44.561 99.349 99.349 99.349h1842.272c54.766 0 99.349-44.561 99.349-99.349V7370.689c-.022-54.765-44.583-99.326-99.371-99.326zm-1842.25 18.051h1842.272c44.811 0 81.275 36.465 81.275 81.275v27.099H131.437v-27.099c0-44.81 36.465-81.275 81.298-81.275zm-81.298 126.426h2000.311v162.55H131.437v-162.55zm1923.548 1110.797H212.735c-44.811 0-81.275-36.465-81.275-81.275v-848.898h2004.823v848.898c0 44.81-36.465 81.275-81.298 81.275z"/><path d="M158.536 7479.063h316.075c4.989 0 9.025-4.036 9.025-9.025s-4.036-9.025-9.025-9.025H158.536c-4.988 0-9.025 4.036-9.025 9.025s4.037 9.025 9.025 9.025zm361.225 0h167.062c4.989 0 9.026-4.036 9.026-9.025s-4.037-9.025-9.026-9.025H519.761c-4.988 0-9.025 4.036-9.025 9.025s4.037 9.025 9.025 9.025zm591.512-9.025a9.02 9.02 0 0 0-9.025-9.025h-370.25c-4.989 0-9.025 4.036-9.025 9.025s4.036 9.025 9.025 9.025h370.25a9.02 9.02 0 0 0 9.025-9.025zm22.587 9.025h36.125c4.989 0 9.025-4.036 9.025-9.025s-4.037-9.025-9.025-9.025h-36.125c-4.989 0-9.025 4.036-9.025 9.025s4.036 9.025 9.025 9.025zm67.736 0h189.649c4.989 0 9.025-4.036 9.025-9.025s-4.036-9.025-9.025-9.025h-189.649a9.02 9.02 0 0 0-9.025 9.025c-.022 4.989 4.037 9.025 9.025 9.025zm216.727 0h108.374c4.989 0 9.025-4.036 9.025-9.025s-4.036-9.025-9.025-9.025h-108.374c-4.989 0-9.026 4.036-9.026 9.025s4.037 9.025 9.026 9.025zm234.8 0h230.287c4.988 0 9.025-4.036 9.025-9.025s-4.037-9.025-9.025-9.025h-230.287c-4.989 0-9.025 4.036-9.025 9.025s4.036 9.025 9.025 9.025zm-31.613-9.025a9.02 9.02 0 0 0-9.025-9.025h-54.176c-4.989 0-9.026 4.036-9.026 9.025s4.037 9.025 9.026 9.025h54.176a9.02 9.02 0 0 0 9.025-9.025zm496.699-9.025h-185.137c-4.988 0-9.025 4.036-9.025 9.025s4.037 9.025 9.025 9.025h185.137c4.989 0 9.025-4.036 9.025-9.025s-4.036-9.025-9.025-9.025zm0 67.714h-316.074a9.02 9.02 0 0 0-9.025 9.025 9.02 9.02 0 0 0 9.025 9.025h316.074a9.02 9.02 0 0 0 9.025-9.025c0-4.966-4.036-9.025-9.025-9.025zm-361.225 0h-167.062a9.02 9.02 0 0 0-9.025 9.025 9.02 9.02 0 0 0 9.025 9.025h167.062a9.02 9.02 0 0 0 9.025-9.025c.001-4.966-4.037-9.025-9.025-9.025zm-212.213 0h-370.273a9.02 9.02 0 0 0-9.025 9.025 9.02 9.02 0 0 0 9.025 9.025h370.273a9.02 9.02 0 0 0 9.025-9.025c.001-4.966-4.059-9.025-9.025-9.025zm-401.886 0h-36.125a9.02 9.02 0 0 0-9.025 9.025 9.02 9.02 0 0 0 9.025 9.025h36.125a9.02 9.02 0 0 0 9.025-9.025c.001-4.966-4.035-9.025-9.025-9.025zm-67.713 0H935.185a9.02 9.02 0 0 0-9.025 9.025 9.02 9.02 0 0 0 9.025 9.025h139.986a9.02 9.02 0 0 0 9.025-9.025c.001-4.966-4.059-9.025-9.024-9.025zm-185.137 0H750.049a9.02 9.02 0 0 0-9.025 9.025 9.02 9.02 0 0 0 9.025 9.025h139.986a9.02 9.02 0 0 0 9.025-9.025c0-4.966-4.036-9.025-9.025-9.025zm-266.412 0H393.336a9.02 9.02 0 0 0-9.025 9.025 9.02 9.02 0 0 0 9.025 9.025h230.287a9.02 9.02 0 0 0 9.025-9.025c0-4.966-4.036-9.025-9.025-9.025zm94.813 0H664.26a9.02 9.02 0 0 0-9.025 9.025 9.02 9.02 0 0 0 9.025 9.025h54.176a9.02 9.02 0 0 0 9.025-9.025c.024-4.966-4.035-9.025-9.025-9.025zm-374.762 0H158.536a9.02 9.02 0 0 0-9.025 9.025 9.02 9.02 0 0 0 9.025 9.025h185.138a9.02 9.02 0 0 0 9.025-9.025c0-4.966-4.037-9.025-9.025-9.025zm1575.861 447.035h-302.537c-17.416 0-31.612 14.174-31.612 31.612v307.05c0 17.438 14.174 31.611 31.612 31.611h302.536c17.416 0 31.612-14.173 31.612-31.611v-307.05c0-17.438-14.195-31.612-31.611-31.612zm13.537 338.638c0 7.461-6.077 13.539-13.538 13.539h-302.536c-7.461 0-13.538-6.078-13.538-13.539v-307.049c0-7.461 6.077-13.538 13.538-13.538h302.536c7.461 0 13.538 6.077 13.538 13.538V8314.4zm-690.838-158.037H312.061a9.02 9.02 0 0 0-9.025 9.025 9.02 9.02 0 0 0 9.025 9.025h930.173a9.02 9.02 0 0 0 9.025-9.025c.001-4.965-4.036-9.025-9.025-9.025zm0-117.399H312.061a9.02 9.02 0 0 0-9.025 9.025 9.02 9.02 0 0 0 9.025 9.025h930.173a9.02 9.02 0 0 0 9.025-9.025c.001-4.967-4.036-9.025-9.025-9.025zm-474.111 239.312H312.061c-4.989 0-9.025 4.036-9.025 9.025s4.036 9.025 9.025 9.025h456.062a9.02 9.02 0 0 0 9.025-9.025c0-4.966-4.037-9.025-9.025-9.025z"/></svg>