<svg xmlns="http://www.w3.org/2000/svg" width="2063.625" height="1330.947" viewBox="102.048 7054.048 2063.625 1330.947"><path d="M544.594 8384.995c-159.354 0-301.698-23.925-435.131-73.111a11.33 11.33 0 0 1-7.415-10.636V7137.795c0-3.72 1.814-7.189 4.853-9.298a11.374 11.374 0 0 1 10.409-1.338c130.87 48.257 270.675 71.705 427.397 71.705 195.341 0 394.492-36.715 587.112-72.228 193.618-35.693 393.812-72.589 591.218-72.589 159.443 0 301.811 23.901 435.221 73.111 4.444 1.655 7.415 5.896 7.415 10.636v1163.453c0 3.719-1.814 7.188-4.853 9.298a11.377 11.377 0 0 1-10.409 1.338c-130.87-48.257-270.697-71.706-427.397-71.706-195.363 0-394.537 36.715-587.18 72.228-193.573 35.693-393.768 72.589-591.172 72.589l-.068.001zm-419.87-91.684c128.738 46.421 266.186 69.007 419.869 69.007h.09c195.342 0 394.493-36.714 587.09-72.227 193.618-35.694 393.836-72.59 591.264-72.59 153.388 0 290.947 22.133 419.98 67.601v-1139.37c-128.738-46.42-266.207-69.007-419.981-69.007-195.341 0-394.492 36.715-587.112 72.227-193.618 35.694-393.812 72.59-591.217 72.59-153.389 0-290.949-22.133-419.982-67.601v1139.37h-.001z"/><path d="M571.715 8213.986c-36.396 0-70.843-2.2-102.364-6.554a11.308 11.308 0 0 1-7.733-4.717c-1.813-2.562-2.449-5.783-1.813-8.867 2.358-11.226 3.56-22.563 3.56-33.767 0-89.529-72.839-162.368-162.368-162.368-6.259 0-11.339-5.08-11.339-11.339v-384.016c0-6.259 5.08-11.339 11.339-11.339 42.089 0 92.341-26.827 125.087-66.739 27.19-33.153 38.348-70.412 31.477-104.882-.726-3.605.362-7.324 2.857-10 2.517-2.653 6.031-3.991 9.842-3.447 34.311 4.785 72.271 7.212 112.818 7.212h.046c159.67 0 348.345-37.259 530.828-73.248 183.571-36.238 373.38-73.701 535.272-73.701 41.635 0 80.662 2.495 116.016 7.438 3.176.454 6.033 2.223 7.824 4.876s2.381 5.964 1.609 9.07c-3.265 13.244-4.92 26.374-4.92 39.005 0 89.53 72.839 162.369 162.346 162.369 6.259 0 11.338 5.079 11.338 11.339v407.645c0 6.259-5.079 11.339-11.338 11.339-72.227 0-136.403 48.574-156.088 118.103-1.52 5.442-6.417 8.98-12.518 8.142-31.136-4.399-65.333-6.622-101.571-6.622-162.437 0-355.896 44.402-543.005 87.33-188.109 43.109-382.588 87.738-547.202 87.738zm-87.557-27.53c27.259 3.22 56.648 4.83 87.557 4.83 162.052 0 355.262-44.334 542.099-87.217 188.335-43.223 383.086-87.896 548.085-87.896 33.653 0 65.65 1.882 95.199 5.579 24.151-70.617 89.28-120.235 163.639-124.839v-385.647c-96.786-5.874-173.685-86.469-173.685-184.706 0-10.478.998-21.226 2.948-32.065-31.091-3.742-64.925-5.646-100.801-5.646-159.67 0-348.367 37.235-530.873 73.247-183.549 36.238-373.334 73.7-535.227 73.7h-.046c-35.875 0-69.823-1.859-101.163-5.533 2.699 36.67-10.59 74.608-38.278 108.375-33.971 41.431-85.425 70.299-131.278 74.494v362.246c96.786 5.873 173.707 86.468 173.707 184.705.022 8.775-.635 17.597-1.883 26.373z"/><path d="M1142.002 8088.173c-67.556 0-224.687-30.977-224.687-317.844 0-225.274 100.778-408.552 224.687-408.552s224.686 183.277 224.686 408.552c.022 286.89-157.109 317.844-224.686 317.844zm0-703.696c-111.391 0-202.009 173.096-202.009 385.876 0 187.562 73.633 295.166 202.009 295.166 128.375 0 202.008-107.581 202.008-295.166.023-212.781-90.619-385.876-202.008-385.876z"/></svg>