<svg xmlns="http://www.w3.org/2000/svg" width="958.93" height="2187.374" viewBox="610.787 6819.497 958.93 2187.374"><linearGradient id="a" gradientUnits="userSpaceOnUse" x1="610.834" y1="7583.164" x2="1548.581" y2="7583.164"><stop offset="0" stop-color="#57bfeb"/><stop offset="1" stop-color="#3b86a5"/></linearGradient><path fill="url(#a)" d="M1483.543 7580.385c14.173-17.598 23.018-39.662 23.018-63.994 0-56.762-46.375-102.933-103.658-102.933-57.146 0-103.68 46.171-103.68 102.933 0 5.623.793 11.021 1.655 16.396-.952-5.329-1.655-10.749-1.655-16.396 0-2.382.521-4.559.657-6.872-156.337-13.447-393.54-32.7-483.183-34.968-7.711-49.142-50.502-86.785-102.343-86.785-57.214 0-103.521 46.012-103.521 102.932 0 56.761 46.307 102.932 103.521 102.932 10.069 0 19.344-2.54 28.528-5.216-17.484 18.368-28.301 43.019-28.301 70.299 0 56.988 46.397 103 103.521 103 57.282 0 103.589-46.012 103.589-103 0-5.76-.59-11.588-1.564-17.189l421.796 29.911c-.068 1.452-.453 2.835-.453 4.286 0 56.829 46.307 102.842 103.521 102.842 57.282 0 103.59-46.013 103.59-102.842.022-43.315-26.918-80.164-65.038-95.336zm-574.617 28.845c-17.553-31.816-51.614-53.473-90.822-53.473-10.228 0-19.956 1.928-29.367 4.717 14.264-15.012 24.968-33.472 28.074-54.766 76.581 2.178 297.729 19.503 485.746 35.559-.023-.092-.046-.182-.068-.295 8.027 32.359 31.295 58.643 61.932 70.843-6.917 8.572-12.473 18.165-16.351 28.664l-439.144-31.249z"/><linearGradient id="b" gradientUnits="userSpaceOnUse" x1="610.787" y1="8553.236" x2="1548.535" y2="8553.236"><stop offset="0" stop-color="#57bfeb"/><stop offset="1" stop-color="#3b86a5"/></linearGradient><path fill="url(#b)" d="M1445.013 8800.986c-53.178 0-96.4 39.934-102.342 91.184-154.182 5.352-327.754 10.568-448.985 12.949 24.718-14.65 42.27-39.367 48.098-68.439 9.933 3.152 19.865 6.258 30.841 6.258 46.466 0 85.675-30.479 98.805-72.295 31.748 2.881 68.576 6.281 103.453 9.547 9.071 47.578 50.865 83.611 101.572 83.611 57.191 0 103.521-46.08 103.521-102.908 0-56.852-46.329-103.023-103.521-103.023-53.11 0-96.084 39.686-102.298 90.641a19345.13 19345.13 0 0 0-98.033-8.934c0-.295-.159-.455-.159-.658-3.424.385-6.871 1.043-10.454 1.043-7.075 0-14.014-.703-20.681-2.086a103.79 103.79 0 0 0 20.681 2.086c57.351 0 103.816-46.08 103.816-103 0-13.787-2.835-26.941-7.823-38.982 16.373 35.264 52.066 59.891 93.656 59.891 57.352 0 103.727-46.08 103.727-102.909 0-56.852-46.375-102.932-103.727-102.932-40.569 0-75.515 23.38-92.545 57.192-45.264-8.822-96.288-18.664-137.81-25.988.067 1.338.386 2.517.386 3.877 0 5.443-.658 10.727-1.61 15.874.816-5.192 1.61-10.454 1.61-15.874 0-46.08-30.569-84.586-72.477-97.783.091.022.158.045.249.067 117.944-4.309 254.416-8.957 348.073-12.087 9.184 47.6 51.182 83.656 101.82 83.656 57.078 0 103.657-46.171 103.657-103.022 0-56.829-46.602-102.909-103.657-102.909-53.201 0-96.945 39.73-102.932 90.891-133.705 4.49-353.334 11.951-483.978 17.348-6.327-30.591-26.577-55.809-53.632-69.913 33.019-17.258 55.764-51.251 55.764-90.822 0-56.942-46.397-102.933-103.748-102.933-57.215 0-103.521 45.99-103.521 102.933 0 39.571 22.7 73.564 55.649 90.822-32.949 17.212-55.649 51.183-55.649 90.754 0 56.852 46.307 103 103.521 103 53.723 0 97.308-40.638 102.683-92.455 19.774-.749 41.34-1.655 64.63-2.54.771-.317 1.633-.453 2.426-.726-38.573 14.967-65.99 52.066-65.99 95.743 0 56.761 46.058 102.932 103.295 102.932 47.622 0 76.399-32.156 99.076-75.605v.09c45.354 6.804 85.72 15.829 132.344 24.877-.748 5.171-1.201 10.318-1.201 15.557 0 13.811 2.902 26.941 7.869 38.914-16.51-35.24-52.203-59.845-93.975-59.845-57.215 0-103.363 46.171-103.363 102.933 0 .701.228 1.359.228 2.062-45.037 4.648-79.982 37.168-89.167 80.414-10.228-3.311-20.932-5.602-32.201-5.602-52.884 0-96.515 39.277-102.933 90.006-7.619-1.791-15.533-2.834-23.743-2.834-57.214 0-103.521 46.08-103.521 102.932 0 56.92 46.308 102.908 103.521 102.908 45.423 0 83.861-28.891 97.921-69.166 11.724-.066 25.013-.158 40.229-.453 59.709-.816 142.594-2.926 246.206-5.828 88.939-2.584 177.856-5.533 244.732-7.869 9.206 47.486 51.069 83.295 101.548 83.295 57.283 0 103.59-45.99 103.59-102.91.069-56.879-46.237-102.957-103.521-102.957zm-506.38-415.197c-5.533-.907-11.112-1.679-16.918-1.679 5.783 0 11.407.658 16.918 1.679zm91.887 347.686c-1.542-.543-3.266-.838-4.785-1.473 1.542.635 3.243.93 4.785 1.473z"/><linearGradient id="c" gradientUnits="userSpaceOnUse" x1="988.476" y1="7225.295" x2="1200.984" y2="7225.295"><stop offset="0" stop-color="#57bfeb"/><stop offset="1" stop-color="#3b86a5"/></linearGradient><path fill="url(#c)" d="M1153.794 7309.461c28.347-18.392 47.19-50.026 47.19-86.105 0-56.92-46.533-102.932-103.748-102.932-23.153 0-44.356 7.846-61.637 20.636-28.323 18.392-47.123 50.049-47.123 86.105 0 56.829 46.398 103 103.681 103 23.198.023 44.379-7.869 61.637-20.704z"/><linearGradient id="d" gradientUnits="userSpaceOnUse" x1="677.685" y1="7015.338" x2="1569.717" y2="7015.338"><stop offset="0" stop-color="#57bfeb"/><stop offset="1" stop-color="#3b86a5"/></linearGradient><path fill="url(#d)" d="M781.116 7025.497c57.146 0 103.681-46.171 103.681-103 0 3.81-.748 7.393-1.134 11.135l481.119 23.606c-1.497 7.03-2.336 14.332-2.336 21.793 0 12.994 2.676 25.24 7.075 36.76-13.447-6.418-27.983-10.522-43.835-10.522-49.821 0-91.435 34.878-101.458 81.411-66.852-6.645-168.582-16.509-207.405-19.502.113.363.159.726.272 1.065-12.654-42.679-51.84-73.973-98.94-73.973-57.147 0-103.521 46.012-103.521 102.932 0 56.852 46.397 102.864 103.521 102.864 57.282 0 103.589-46.013 103.589-102.864 0-5.715-.793-11.226-1.678-16.69.998 5.42 1.678 10.953 1.678 16.69 0 .59-.136 1.202-.136 1.882 38.098 3.062 123.522 11.339 200.829 18.959 5.012 52.202 49.391 93.135 103.249 93.135 57.147 0 103.386-46.171 103.386-102.932 0-12.994-3.084-25.104-7.393-36.602 13.516 6.418 28.459 10.318 44.424 10.318 57.306 0 103.613-46.012 103.613-102.932 0-56.829-46.308-102.932-103.613-102.932-37.87 0-70.865 20.16-88.939 50.275l-494.431-24.265c-9.548-47.078-51.5-82.613-101.595-82.613-57.282 0-103.453 46.148-103.453 103 0 56.831 46.149 103.002 103.431 103.002z"/><linearGradient id="e" gradientUnits="userSpaceOnUse" x1="858.445" y1="7879.951" x2="1397.506" y2="7879.951"><stop offset="0" stop-color="#57bfeb"/><stop offset="1" stop-color="#3b86a5"/></linearGradient><path fill="url(#e)" d="M1397.506 7834.438c0-56.919-46.307-102.932-103.454-102.932-50.706 0-92.659 36.057-101.685 83.793l-129.94-33.676c-11.338-44.584-51.84-77.692-100.232-77.692-57.215 0-103.749 46.103-103.749 103 0 56.829 46.534 102.863 103.749 102.863 54.516 0 99.031-41.749 103.158-94.949l126.425 32.7c1.475 11.361 4.672 22.088 9.57 31.976-18.686-18.21-44.198-29.413-72.34-29.413-57.306 0-103.748 46.013-103.748 102.932 0 56.853 46.442 102.933 103.748 102.933 57.146 0 103.589-46.08 103.589-102.933 0-16.281-4.195-31.453-10.907-45.104 18.663 18.142 44.152 29.436 72.385 29.436 57.124-.003 103.431-46.173 103.431-102.934z"/><linearGradient id="f" gradientUnits="userSpaceOnUse" x1="781.207" y1="7342.637" x2="1371.607" y2="7342.637"><stop offset="0" stop-color="#57bfeb"/><stop offset="1" stop-color="#3b86a5"/></linearGradient><path fill="url(#f)" d="M884.66 7227.188c-57.078 0-103.453 46.171-103.453 103s46.375 102.932 103.453 102.932c45.037 0 83.203-28.459 97.626-68.189 47.35 5.057 116.561 12.767 187.495 20.795 13.13 41.771 51.84 72.362 98.373 72.362 57.215 0 103.453-46.171 103.453-102.932 0-56.92-46.216-103-103.453-103-56.806 0-102.5 45.264-103.385 101.413-61.818-7.03-128.376-14.469-176.429-19.548 0-1.339.159-2.54.159-3.81-.023-56.875-46.488-103.023-103.839-103.023z"/><linearGradient id="g" gradientUnits="userSpaceOnUse" x1="816.402" y1="8101.337" x2="1483.747" y2="8101.337"><stop offset="0" stop-color="#57bfeb"/><stop offset="1" stop-color="#3b86a5"/></linearGradient><path fill="url(#g)" d="M1286.568 8159.356c16.577 34.719 52.135 58.87 93.453 58.87 57.282 0 103.726-46.08 103.726-102.932 0-56.92-46.443-102.932-103.726-102.932-57.215 0-103.521 46.012-103.521 102.932 0 4.626.453 9.116 1.043 13.447-86.06 10.908-193.663 24.492-291.72 37.214 23.856-18.868 39.413-47.646 39.413-80.232 0-56.92-46.329-103-103.521-103-57.214 0-103.589 46.08-103.589 103 0 42.021 25.466 78.078 61.841 94.042-22.813 3.062-44.085 5.896-63.247 8.596.59 4.626 1.406 9.252 1.406 14.195 0 5.964-.816 11.656-1.724 17.394 109.259-14.944 300.994-39.367 470.166-60.594zm-345.872 27.373c-6.146 1.179-12.495 1.904-19.004 1.904 6.531 0 12.835-.771 19.004-1.904zm31.906-11.907c-.726.432-1.474.794-2.222 1.202.749-.408 1.474-.794 2.222-1.202zm-14.944 7.053c-2.245.861-4.58 1.429-6.916 2.132 2.336-.657 4.671-1.293 6.916-2.132z"/></svg>