<svg xmlns="http://www.w3.org/2000/svg" viewBox="0 0 100 125"><path d="M24.4 31.8c4.2 0 7.5 3.4 7.5 7.5s-3.4 7.5-7.5 7.5c-4.2 0-7.5-3.4-7.5-7.5s3.3-7.5 7.5-7.5m0-1c-4.7 0-8.5 3.8-8.5 8.5s3.8 8.5 8.5 8.5 8.5-3.8 8.5-8.5-3.8-8.5-8.5-8.5zm25.6 1c4.2 0 7.5 3.4 7.5 7.5s-3.4 7.5-7.5 7.5-7.5-3.4-7.5-7.5 3.3-7.5 7.5-7.5m0-1c-4.7 0-8.6 3.8-8.6 8.5s3.8 8.5 8.5 8.5 8.5-3.8 8.5-8.5-3.7-8.5-8.4-8.5zM24.4 51c3.4 0 6.7.9 9.5 2.7-3.8 3.9-6 9.1-6.2 14.5H6.2C6.7 58.6 14.7 51 24.4 51m0-1C13.8 50 5.2 58.6 5.2 69.2h23.5c0-6.2 2.6-11.7 6.9-15.6-3.2-2.3-7.1-3.6-11.2-3.6zm51.2-18.2c4.2 0 7.5 3.4 7.5 7.5s-3.4 7.5-7.5 7.5c-4.2 0-7.5-3.4-7.5-7.5s3.4-7.5 7.5-7.5m0-1c-4.7 0-8.5 3.8-8.5 8.5s3.8 8.5 8.5 8.5 8.5-3.8 8.5-8.5-3.8-8.5-8.5-8.5zm0 20.2c9.7 0 17.7 7.6 18.2 17.2H72.3c-.2-5.4-2.5-10.6-6.2-14.5 2.8-1.8 6.1-2.7 9.5-2.7m0-1c-4.1 0-8 1.3-11.1 3.6 4.2 3.9 6.9 9.5 6.9 15.6h23.5C94.8 58.6 86.2 50 75.6 50z"/><path d="M50 51c9.7 0 17.6 7.6 18.2 17.2H31.9C32.3 58.6 40.3 51 50 51m0-1c-10.6 0-19.2 8.6-19.2 19.2h38.5C69.2 58.6 60.6 50 50 50z"/></svg>