<svg xmlns="http://www.w3.org/2000/svg" width="1950.239" height="1224.568" viewBox="158.74 7296.033 1950.239 1224.568"><path d="M1020.474 7296.033c-240.324 0-440.334 178.527-472.678 410.314-216.603 10.207-389.057 186.896-389.057 406.064 0 225.744 182.445 408.189 408.19 408.189H1700.79c225.745 0 408.189-182.445 408.189-408.19 0-170.813-103.229-316.145-252.284-377.01-28.398-185.22-190.045-325.983-382.677-325.983-43.022 0-88.933 7.264-129.686 20.55-84.93-83.04-194.972-133.934-323.858-133.934zm0 45.353c121.51 0 222.455 47.97 301.182 128.977a22.681 22.681 0 0 0 24.094 5.67c36.385-13.814 85.42-21.26 128.269-21.26 174.173 0 319.735 128.834 340.157 296.93a22.684 22.684 0 0 0 14.883 19.133c138.479 50.838 234.566 184.264 234.566 341.576 0 201.402-161.432 362.834-362.835 362.834H566.93c-201.403 0-362.836-161.432-362.836-362.834 0-201.404 161.433-362.836 362.836-362.836 11.738.05 21.575-8.863 22.677-20.551 21.742-217.491 207.315-387.64 430.867-387.64z"/></svg>