<svg xmlns="http://www.w3.org/2000/svg" viewBox="0 0 100 125"><path d="M33.066 33.218a4.088 4.088 0 0 0 5.005-2.877l1.297-4.802.138-.51 1.691-6.263a4.054 4.054 0 0 0-.402-3.098 4.053 4.053 0 0 0-2.474-1.906 4.088 4.088 0 0 0-5.005 2.877l-1.297 4.802-.349 1.292-1.48 5.48a4.057 4.057 0 0 0 .401 3.098 4.06 4.06 0 0 0 2.475 1.907zm1.235-16.314a3.065 3.065 0 0 1 3.753-2.157 3.038 3.038 0 0 1 1.855 1.43c.408.708.515 1.534.301 2.323l-1.297 4.802-5.91-1.596 1.298-4.802zm-1.563 5.787l5.91 1.596-5.91-1.596zm-1.563 5.788l1.297-4.803 5.911 1.596-1.297 4.803c-.43 1.593-2.143 2.592-3.754 2.157a3.043 3.043 0 0 1-1.856-1.43 3.042 3.042 0 0 1-.301-2.323zm-7.827 3.315a4.087 4.087 0 0 0-3.303 4.734l.89 5.003.338 1.903h.001l.872 4.898a4.074 4.074 0 0 0 4.013 3.367c.237 0 .478-.021.719-.064 1.074-.19 2.008-.788 2.632-1.682s.863-1.978.671-3.051l-1.135-6.379-.094-.527-.872-4.897a4.08 4.08 0 0 0-4.732-3.305zm5.325 17.576a3.042 3.042 0 0 1-2.515 1.31 3.055 3.055 0 0 1-3.009-2.525l-.872-4.898 6.027-1.072.871 4.897a3.028 3.028 0 0 1-.502 2.288zm-6.752-8.122l-.872-4.898a3.064 3.064 0 0 1 3.018-3.598 3.056 3.056 0 0 1 3.01 2.526l.872 4.897-6.028 1.073zm16.32 3.094l10.103-6.455a4.062 4.062 0 0 0 1.79-2.562 4.054 4.054 0 0 0-.545-3.075 4.065 4.065 0 0 0-3.443-1.885 4.06 4.06 0 0 0-2.194.643l-10.104 6.454a4.088 4.088 0 0 0-1.242 5.638 4.068 4.068 0 0 0 3.443 1.884c.776 0 1.534-.222 2.192-.642zM44.5 31.868a3.054 3.054 0 0 1 1.645-.482c1.052 0 2.018.528 2.583 1.414.44.688.585 1.507.409 2.306s-.653 1.481-1.342 1.921l-5.625 3.594-3.295-5.16 5.625-3.593zm.296 16.179a4.08 4.08 0 0 0-5.359 2.146l-4.719 11.021a4.06 4.06 0 0 0-.037 3.125 4.048 4.048 0 0 0 2.183 2.234 4.08 4.08 0 0 0 5.358-2.146l4.72-11.021a4.09 4.09 0 0 0-2.146-5.359zm1.206 4.958l-2.628 6.137-5.627-2.41 2.627-6.136a3.06 3.06 0 0 1 4.02-1.61 3.065 3.065 0 0 1 1.608 4.019zm-16.69 5.07l-10.699-5.413a4.037 4.037 0 0 0-1.838-.44c-1.55 0-2.947.858-3.646 2.24a4.087 4.087 0 0 0 1.799 5.484l10.699 5.413a4.04 4.04 0 0 0 1.839.44 4.068 4.068 0 0 0 3.646-2.239 4.09 4.09 0 0 0-1.8-5.485zm.89 5.025a3.052 3.052 0 0 1-2.735 1.68c-.481 0-.945-.111-1.378-.33l-5.957-3.014 2.763-5.464 5.957 3.014a3.068 3.068 0 0 1 1.35 4.114zm-6.307-35.193a4.06 4.06 0 0 0 3.901-2.885 4.054 4.054 0 0 0-.296-3.11 4.057 4.057 0 0 0-2.409-1.989l-11.462-3.517a4.077 4.077 0 0 0-1.199-.181 4.06 4.06 0 0 0-3.9 2.885c-.32 1.042-.215 2.147.295 3.11s1.366 1.67 2.408 1.99l11.463 3.517c.39.119.794.18 1.199.18zm2.703-5.517a3.04 3.04 0 0 1 .222 2.332 3.045 3.045 0 0 1-2.925 2.165c-.303 0-.606-.046-.899-.136l-6.382-1.958 1.796-5.853 6.381 1.958c.782.24 1.424.77 1.807 1.492zm36.34 21.156l-4.677 18.776c4.853.652 9.522-2.434 10.733-7.296 1.214-4.862-1.464-9.78-6.056-11.48zm-6.78 18.253l4.676-18.777c-4.853-.652-9.522 2.436-10.734 7.298-1.211 4.861 1.463 9.778 6.058 11.479zm31.456-24.124L77.01 53.861c4.366 2.216 9.793.84 12.538-3.353 2.746-4.19 1.84-9.715-1.934-12.833zm-14.355 2.164c-2.746 4.19-1.838 9.715 1.936 12.834l10.604-16.186c-4.366-2.216-9.794-.841-12.54 3.352zm1.924 19.262l10.921 15.975c3.713-3.194 4.51-8.737 1.682-12.873-2.828-4.137-8.283-5.404-12.603-3.102zm-3.472 14.094c2.827 4.136 8.281 5.404 12.604 3.101L73.393 60.324c-3.713 3.192-4.511 8.735-1.682 12.871zm4.477-46.561a10.229 10.229 0 0 0-11.301-7.678l-.564.076 4.957 19.882.534-.198a10.228 10.228 0 0 0 6.374-12.082zM69.99 37.545l-4.396-17.636c4.477-.32 8.524 2.641 9.604 6.972a9.21 9.21 0 0 1-5.208 10.664zm-3.753 1.814c.454 0 .913-.031 1.364-.091l.564-.076-4.955-19.881-.535.198a10.231 10.231 0 0 0-6.372 12.084 10.222 10.222 0 0 0 9.934 7.766zM62.5 20.68l4.396 17.635a9.204 9.204 0 0 1-9.602-6.97A9.21 9.21 0 0 1 62.5 20.68zm2.971 51.547a10.195 10.195 0 0 0-9.467-6.344c-.954 0-1.906.135-2.832.4a10.228 10.228 0 0 0-7.274 11.562l.096.562 19.693-5.653-.216-.527zm-18.646 4.879a9.21 9.21 0 0 1 6.628-9.843 9.258 9.258 0 0 1 2.551-.36 9.177 9.177 0 0 1 8.29 5.188l-17.469 5.015zm19.181-3.249L46.31 79.511l.217.527a10.2 10.2 0 0 0 9.468 6.343h.001c.953 0 1.905-.135 2.83-.4a10.23 10.23 0 0 0 7.275-11.562l-.095-.562zM58.545 85a9.249 9.249 0 0 1-2.549.36h-.001a9.184 9.184 0 0 1-8.291-5.188l17.471-5.015A9.213 9.213 0 0 1 58.545 85z"/></svg>