<svg xmlns="http://www.w3.org/2000/svg" viewBox="0 0 64 80"><path d="M58 23.5h-5.5v-13H54a.5.5 0 0 0 0-1H42a.5.5 0 0 0 0 1h1.5v13h-7v-13H38a.5.5 0 0 0 0-1H26a.5.5 0 0 0 0 1h1.5v13h-7v-13H22a.5.5 0 0 0 0-1H10a.5.5 0 0 0 0 1h1.5v13H6a.5.5 0 0 0 0 1h5.5V52c0 2.481 2.019 4.5 4.5 4.5s4.5-2.019 4.5-4.5V24.5h7V52c0 2.481 2.019 4.5 4.5 4.5s4.5-2.019 4.5-4.5V24.5h7V52c0 2.481 2.019 4.5 4.5 4.5s4.5-2.019 4.5-4.5V24.5H58a.5.5 0 0 0 0-1zm-45.5-13h7v13h-7v-13zm3.5 45c-1.93 0-3.5-1.57-3.5-3.5v-5.5h7V52c0 1.93-1.57 3.5-3.5 3.5zm3.5-10h-7v-21h7v21zm9-35h7v13h-7v-13zm3.5 45c-1.93 0-3.5-1.57-3.5-3.5V32.5h7V52c0 1.93-1.57 3.5-3.5 3.5zm3.5-24h-7v-7h7v7zm9-21h7v13h-7v-13zm3.5 45c-1.93 0-3.5-1.57-3.5-3.5V38.5h7V52c0 1.93-1.57 3.5-3.5 3.5zm3.5-18h-7v-13h7v13z"/></svg>