<svg xmlns="http://www.w3.org/2000/svg" viewBox="0 0 100 125"><path d="M48.948 80.903V77.38c0-1.572-.075-3.393-.634-4.982-.74-2.104-2.193-3.215-4.202-3.215l-.231.004c-1.155.047-2.628.754-4.488 2.16-.539-1.189-1.019-2.473-1.46-3.729H69.54v-6.645H36.53v-1.006c0-9.377 6.174-17.66 15.084-20.398.254.055.517.088.787.088.324 0 .634-.055.934-.135l5.607 16.152.992-.344 1.35 3.883 8.543-2.967-1.348-3.883.992-.344-11.859-34.151-1.652.574-2.123-6.113-7.222 2.508 2.123 6.113-1.653.574 3.826 11.018c-.023.01-.043.025-.065.035-12.384 3.184-21.261 14.496-21.261 27.391a28.123 28.123 0 0 0 4.857 15.854 90.92 90.92 0 0 0-4.744 5.266l-.113.139v6.445h40.83v-6.768H48.948zm3.453-47.677a2.72 2.72 0 0 1 2.717 2.715c0 1.498-1.219 2.717-2.717 2.717s-2.716-1.219-2.716-2.717a2.719 2.719 0 0 1 2.716-2.715zM68.554 55.63l-6.652 2.311-1.021-2.938 6.654-2.311 1.019 2.938zM49.683 20.622l-1.795-5.168 5.333-1.852 1.794 5.168-2.666.926-2.666.926zm-1.326 1.52l.709-.246 7.222-2.508v-.002l.707-.244 11.203 32.262-.047.016-8.545 2.967-.047.016-5.3-15.262c1.105-.645 1.858-1.83 1.858-3.199 0-1.973-1.552-3.578-3.498-3.693v-.098l-.495.104a4.082 4.082 0 0 0-.248.025l-3.519-10.138zm21.058 64.529h-38.83v-5.088a91.513 91.513 0 0 1 4.859-5.354l.293-.295-.239-.342a27.137 27.137 0 0 1-4.913-15.625c0-11.758 7.661-22.135 18.588-25.83a3.661 3.661 0 0 0-.487 1.803c0 1.258.631 2.365 1.588 3.039-8.757 3.176-14.744 11.547-14.744 20.989v2.006h33.01v4.645H36.526l.229.664c.584 1.688 1.229 3.469 1.998 5.059l.271.563.488-.389c2.368-1.873 3.704-2.299 4.407-2.328l.191-.004c3.399 0 3.836 3.846 3.836 7.197v4.523h21.467v4.767z"/></svg>