<svg xmlns="http://www.w3.org/2000/svg" width="1952.79" height="1951.451" viewBox="156.513 6932.018 1952.79 1951.451"><path d="M1131.025 6932.197c-11.682 1.464-20.301 11.623-19.842 23.387v929.765H181.418a22.706 22.706 0 0 0-4.252 0c-12.524 1.174-21.726 12.279-20.552 24.804 1.175 12.523 12.279 21.725 24.804 20.55h929.766v929.767c-.178 12.523 9.832 22.82 22.355 22.998 12.524.176 22.821-9.832 22.998-22.357.004-.213.004-.428 0-.641v-929.766h929.766c12.524.177 22.82-9.832 22.998-22.356.177-12.524-9.832-22.821-22.356-22.998a22.9 22.9 0 0 0-.642 0h-929.766v-929.765c.49-12.517-9.26-23.06-21.775-23.55a22.543 22.543 0 0 0-3.737.162z"/></svg>