<svg xmlns="http://www.w3.org/2000/svg" width="2264.375" height="2264.354" viewBox="2.381 6770.385 2264.375 2264.354"><title>saletag</title><g transform="translate(-28 -29)"><linearGradient id="a" gradientUnits="userSpaceOnUse" x1="-769.479" y1="2157.304" x2="1494.896" y2="2157.304" gradientTransform="matrix(1 0 0 -1 799.86 10088.865)"><stop offset="0" stop-color="#57bfeb"/><stop offset="1" stop-color="#3b86a5"/></linearGradient><path fill="url(#a)" d="M89.706 7730.188c-34.508-34.508-61.036-101.899-59.239-150.855l24.362-663.884c1.791-48.808 42.66-89.819 91.616-91.616l663.883-24.361c48.809-1.791 116.351 24.732 150.856 59.238l1307.728 1307.729c34.508 34.508 34.474 90.489-.192 125.155l-746.129 746.128c-34.614 34.617-90.651 34.699-125.157.195L89.706 7730.188zm518.091-353.389c62.744-62.746 62.711-164.512-.077-227.299s-164.554-62.822-227.298-.077c-62.746 62.745-62.712 164.51.076 227.298s164.554 62.823 227.299.078z"/></g><path d="M894.812 7391.124l171.176 171.177-14.52 14.52-154.364-154.365-109.277 109.277 139.081 139.082-14.521 14.52-139.081-139.08-134.495 134.494L622 7663.938l272.812-272.814zm196.392 196.392l113.862 113.863c11.971 11.969 21.965 24.387 29.994 37.254 8.019 12.865 13.242 25.98 15.666 39.355 2.412 13.371 1.396 26.746-3.057 40.119-4.466 13.373-13.313 26.686-26.556 39.928-18.341 18.34-38.973 28.656-61.897 30.949-22.926 2.293-45.088-4.203-66.484-19.486l-.765.764c10.95 14.008 17.511 27.195 19.678 39.547 2.161 12.359 1.332 24.006-2.484 34.961-3.827 10.955-9.684 21.398-17.576 31.332a334.423 334.423 0 0 1-25.219 28.275l-15.666 15.666c-5.098 5.098-9.624 10.125-13.563 15.09-3.953 4.969-7.26 9.936-9.935 14.904-2.674 4.967-4.275 9.742-4.776 14.326l-18.722-18.721c2.794-9.936 8.274-19.355 16.43-28.275 8.149-8.914 16.812-17.959 25.981-27.129s17.894-18.656 26.174-28.465c8.274-9.803 13.94-20.316 17.003-31.523 3.05-11.205 2.352-23.367-2.102-36.488-4.46-13.117-14.71-27.703-30.758-43.75l-97.051-97.051-124.18 124.18-16.812-16.812 272.815-272.813zm-20.252 247.976c9.935 9.936 20.371 17.957 31.333 24.07 10.948 6.115 22.029 9.684 33.242 10.699 11.205 1.021 22.537-.639 34.005-4.967 11.457-4.328 22.669-11.971 33.624-22.924 10.186-10.188 17.002-20.824 20.442-31.906 3.438-11.08 4.263-22.102 2.483-33.051-1.785-10.955-5.863-21.648-12.227-32.096-6.371-10.439-14.138-20.25-23.309-29.42l-97.05-97.051L973.9 7738.44l97.052 97.052zm260.965-7.263l183.403 183.402-14.52 14.52-166.592-166.592-109.277 109.277 156.657 156.658-14.521 14.521-156.657-156.658-119.976 119.975 168.502 168.504-14.52 14.52-185.313-185.314 272.814-272.813zm213.969 213.968l183.403 183.404-14.52 14.52-166.592-166.592-109.277 109.277 156.657 156.656-14.521 14.521-156.656-156.656-119.976 119.975 168.502 168.502-14.52 14.52-185.313-185.314 272.813-272.813z" fill="#FFF"/></svg>