<svg xmlns="http://www.w3.org/2000/svg" viewBox="0 0 92 92"><path d="M74 56c-6.422 0-12.054 3.392-15.241 8.468l-23.74-12.656C35.644 49.986 36 48.036 36 46c0-2.349-.465-4.587-1.287-6.646l23.586-12.578C61.384 32.272 67.262 36 74 36c9.925 0 18-8.075 18-18S83.925 0 74 0 56 8.075 56 18c0 1.763.266 3.463.74 5.074l-23.908 12.75C29.584 31.104 24.15 28 18 28 8.075 28 0 36.075 0 46s8.075 18 18 18c6.465 0 12.129-3.438 15.303-8.571l23.72 12.645A17.884 17.884 0 0 0 56 74c0 9.925 8.075 18 18 18s18-8.075 18-18-8.075-18-18-18zm0-52c7.72 0 14 6.28 14 14s-6.28 14-14 14-14-6.28-14-14S66.28 4 74 4zM18 60c-7.72 0-14-6.28-14-14s6.28-14 14-14 14 6.28 14 14-6.28 14-14 14zm56 28c-7.72 0-14-6.28-14-14s6.28-14 14-14 14 6.28 14 14-6.28 14-14 14z"/></svg>