<svg xmlns="http://www.w3.org/2000/svg" xmlns:xlink="http://www.w3.org/1999/xlink" width="1000" height="2000" viewBox="0 0 1000 2000"><path fill="#FFF" d="M0 0h1000v2000H0z"/><defs><path id="a" d="M0 0h1000v2000H0z"/></defs><clipPath id="b"><use xlink:href="#a" overflow="visible"/></clipPath><path clip-path="url(#b)" fill="#FFF" d="M0 0h1000v2000H0z"/><path clip-path="url(#b)" fill="none" stroke="#A6AAA9" stroke-width="2" stroke-dasharray="12,12" d="M490.63 87.213a272.431 272.431 0 0 1-53.524 122.247c-29.395 37.863-68.196 67.138-99.591 103.325-170.795 196.865-104.78 502.43 132.291 605.201 55.355 23.997 116.349 32.189 176.195 24.401 36.371-4.733 71.33-24.141 67.312-56.234-3.81-30.415-39.635-38.196-68.412-50.248-48.649-20.374-79.688-69.044-75.733-121.423 4.642-61.476 52.62-111.204 114.063-117.68 58.145-6.128 113.466 27.771 141.503 79.798 84.522 156.842-19.164 313.081-160.411 425.935-100.76 80.505-214.104 149.292-285.67 256.898-49.352 74.207-73.424 166.191-32.719 244.034 21.07 40.294 58.676 70.37 103.61 72.135 68.214 2.679 122.077-51.952 119.979-117.8-2.03-63.729-56.304-114.204-122.449-109.643-73.533 5.071-122.921 77.686-99.262 147.883"/><defs><path id="c" d="M188.017 229h312.927v184.897H188.017z"/></defs><clipPath id="d"><use xlink:href="#c" overflow="visible"/></clipPath><g opacity=".159" clip-path="url(#d)"><defs><path id="e" d="M188 229h313v185H188z"/></defs><clipPath id="f"><use xlink:href="#e" overflow="visible"/></clipPath><g clip-path="url(#f)"><defs><path id="g" d="M188 229h313v185H188z"/></defs><clipPath id="h"><use xlink:href="#g" overflow="visible"/></clipPath><g clip-path="url(#h)"><defs><path id="i" d="M188 229h313v185H188z"/></defs><clipPath id="j"><use xlink:href="#i" overflow="visible"/></clipPath><path clip-path="url(#j)" fill="#008CCD" d="M444.073 300.217h-.164C441.391 260.459 408.281 229 367.843 229c-37.33 0-68.378 26.788-74.954 62.135a67.515 67.515 0 0 0-2.584-.065c-27.81 0-51.267 18.392-58.923 43.644a43.546 43.546 0 0 0-3.599-.163c-21.953 0-39.784 17.771-39.784 39.724C188 396.228 205.798 414 227.751 414H444.04c31.474 0 56.96-25.481 56.96-56.876 0-31.394-25.454-56.907-56.927-56.907"/></g></g></g><defs><path id="k" d="M306 255.297h312.59v185.232H306z"/></defs><clipPath id="l"><use xlink:href="#k" overflow="visible"/></clipPath><g opacity=".467" clip-path="url(#l)"><defs><path id="m" d="M306 255h313v186H306z"/></defs><clipPath id="n"><use xlink:href="#m" overflow="visible"/></clipPath><g clip-path="url(#n)"><defs><path id="o" d="M306 255h313v186H306z"/></defs><clipPath id="p"><use xlink:href="#o" overflow="visible"/></clipPath><g clip-path="url(#p)"><defs><path id="q" d="M306 255h313v186H306z"/></defs><clipPath id="r"><use xlink:href="#q" overflow="visible"/></clipPath><path clip-path="url(#r)" fill="#008CCD" d="M562.073 326.602h-.164C559.391 286.63 526.281 255 485.843 255c-37.33 0-68.378 26.933-74.954 62.471a67.515 67.515 0 0 0-2.584-.065c-27.81 0-51.267 18.492-58.923 43.881a43.108 43.108 0 0 0-3.599-.165c-21.953 0-39.784 17.868-39.784 39.939 0 22.072 17.798 39.94 39.751 39.94h216.29c31.474 0 56.96-25.619 56.96-57.183s-25.453-57.216-56.927-57.216"/></g></g></g><defs><path id="s" d="M208 282h313v185H208z"/></defs><clipPath id="t"><use xlink:href="#s" overflow="visible"/></clipPath><g clip-path="url(#t)"><defs><path id="u" d="M208.243 282H521v185H208.243z"/></defs><clipPath id="v"><use xlink:href="#u" overflow="visible"/></clipPath><g opacity=".795" clip-path="url(#v)"><defs><path id="w" d="M208 282h313v185H208z"/></defs><clipPath id="x"><use xlink:href="#w" overflow="visible"/></clipPath><g clip-path="url(#x)"><defs><path id="y" d="M208 282h313v185H208z"/></defs><clipPath id="z"><use xlink:href="#y" overflow="visible"/></clipPath><g clip-path="url(#z)"><defs><path id="A" d="M208 282h313v185H208z"/></defs><clipPath id="B"><use xlink:href="#A" overflow="visible"/></clipPath><path clip-path="url(#B)" fill="#008CCD" d="M464.073 353.217h-.164C461.391 313.459 428.281 282 387.843 282c-37.33 0-68.378 26.788-74.954 62.135a67.515 67.515 0 0 0-2.584-.065c-27.81 0-51.267 18.392-58.923 43.644a43.546 43.546 0 0 0-3.599-.163c-21.953 0-39.784 17.771-39.784 39.724C208 449.228 225.798 467 247.751 467H464.04c31.474 0 56.96-25.481 56.96-56.876 0-31.394-25.454-56.907-56.927-56.907"/></g></g></g></g><defs><path id="C" d="M491 611h326v325H491z"/></defs><clipPath id="D"><use xlink:href="#C" overflow="visible"/></clipPath><g clip-path="url(#D)"><defs><path id="E" d="M491 611h326v325H491z"/></defs><clipPath id="F"><use xlink:href="#E" overflow="visible"/></clipPath><path clip-path="url(#F)" fill="#008CCD" d="M624.871 874.916l-7.432-2.737a56.656 56.656 0 0 0-.625-16.426l7.175-3.303c4.483-2.063 6.448-7.392 4.382-11.872l-4.191-9.087c-2.062-4.479-7.384-6.446-11.859-4.385l-7.188 3.311a56.633 56.633 0 0 0-12.078-11.161l2.743-7.417c1.705-4.626-.668-9.784-5.293-11.495l-9.396-3.466c-4.486-1.652-9.841.813-11.49 5.287l-2.74 7.424a57.247 57.247 0 0 0-16.433.625l-3.304-7.178c-2.064-4.477-7.395-6.447-11.867-4.383l-9.098 4.18c-4.48 2.068-6.442 7.398-4.384 11.871l3.307 7.171a56.825 56.825 0 0 0-11.158 12.091l-7.415-2.742c-4.479-1.67-9.841.799-11.501 5.289l-3.467 9.393a8.907 8.907 0 0 0 .267 6.847 8.853 8.853 0 0 0 5.026 4.634l7.432 2.748a56.343 56.343 0 0 0 .625 16.426l-7.183 3.306c-4.48 2.061-6.443 7.384-4.382 11.864l4.189 9.097c2.067 4.474 7.389 6.441 11.867 4.375l7.181-3.298a56.657 56.657 0 0 0 12.086 11.153l-2.743 7.425a8.823 8.823 0 0 0 .268 6.836 8.88 8.88 0 0 0 5.023 4.659l9.396 3.464a8.885 8.885 0 0 0 6.841-.265 8.87 8.87 0 0 0 4.646-5.027l2.745-7.427a57 57 0 0 0 16.43-.618l3.305 7.174c2.063 4.476 7.392 6.441 11.869 4.377l9.095-4.186c4.486-2.061 6.451-7.385 4.382-11.864l-3.307-7.173a56.486 56.486 0 0 0 11.155-12.083l7.427 2.745a8.88 8.88 0 0 0 6.852-.276 8.899 8.899 0 0 0 4.641-5.022l3.467-9.391c1.708-4.621-.663-9.777-5.288-11.49m-49.209 23.37a35.07 35.07 0 0 1-14.792 3.247c-13.775 0-26.391-8.077-32.149-20.569-8.155-17.725-.382-38.771 17.334-46.931a35.048 35.048 0 0 1 14.781-3.253c13.767 0 26.398 8.077 32.154 20.572 8.161 17.722.385 38.771-17.328 46.934m137.7 2.239l-4.136-1.52c.329-3.02.22-6.097-.35-9.149l3.993-1.844a4.975 4.975 0 0 0 2.441-6.606l-2.331-5.064c-1.155-2.499-4.114-3.598-6.606-2.443l-4.002 1.841a31.465 31.465 0 0 0-6.723-6.213l1.523-4.132a5 5 0 0 0-2.948-6.404l-5.234-1.927c-2.497-.927-5.476.449-6.4 2.945l-1.526 4.135a31.8 31.8 0 0 0-9.146.347l-1.836-3.99c-1.158-2.496-4.12-3.592-6.617-2.443l-5.065 2.333a4.993 4.993 0 0 0-2.44 6.613l1.842 3.992a31.756 31.756 0 0 0-6.219 6.735l-4.127-1.526c-2.489-.927-5.478.441-6.4 2.946l-1.933 5.23a5.01 5.01 0 0 0 .145 3.817 4.982 4.982 0 0 0 2.805 2.579l4.136 1.528a31.337 31.337 0 0 0 .347 9.151l-3.996 1.837a4.983 4.983 0 0 0-2.438 6.609l2.337 5.067a4.981 4.981 0 0 0 6.603 2.438l3.997-1.836a31.451 31.451 0 0 0 6.733 6.205l-1.526 4.13a4.937 4.937 0 0 0 .147 3.815 4.957 4.957 0 0 0 2.802 2.593l5.229 1.932a4.957 4.957 0 0 0 3.81-.152 4.932 4.932 0 0 0 2.588-2.793l1.526-4.143a31.33 31.33 0 0 0 9.15-.345l1.84 3.993c1.149 2.491 4.114 3.592 6.605 2.438l5.068-2.333a4.982 4.982 0 0 0 2.438-6.607l-1.84-3.998a31.22 31.22 0 0 0 6.211-6.725l4.135 1.524a4.93 4.93 0 0 0 3.817-.15 4.961 4.961 0 0 0 2.585-2.798l1.934-5.231c.948-2.576-.376-5.452-2.948-6.401m-27.401 13.013a19.61 19.61 0 0 1-8.233 1.812c-7.667 0-14.695-4.5-17.9-11.457-4.545-9.865-.22-21.59 9.65-26.128a19.578 19.578 0 0 1 8.231-1.809c7.664 0 14.692 4.498 17.9 11.452 4.539 9.865.214 21.584-9.648 26.13m121.206-170.439l-12.492-4.61a95.097 95.097 0 0 0-1.048-27.627l12.067-5.552c7.527-3.458 10.829-12.419 7.359-19.959l-7.039-15.282c-3.47-7.534-12.423-10.851-19.945-7.374l-12.083 5.57a95.353 95.353 0 0 0-20.307-18.762l4.606-12.476c2.865-7.78-1.117-16.452-8.895-19.32l-15.796-5.842c-7.536-2.77-16.54 1.373-19.325 8.899l-4.606 12.49a95.734 95.734 0 0 0-27.623 1.042l-5.561-12.054c-3.47-7.531-12.423-10.837-19.956-7.368l-15.291 7.037c-7.533 3.472-10.843 12.43-7.379 19.954l5.568 12.061a95.633 95.633 0 0 0-18.764 20.32l-12.471-4.604c-7.528-2.804-16.545 1.347-19.33 8.883l-5.828 15.801c-1.396 3.766-1.229 7.852.443 11.5 1.692 3.648 4.697 6.425 8.456 7.796l12.489 4.624a94.826 94.826 0 0 0 1.048 27.622l-12.066 5.553c-7.536 3.472-10.833 12.415-7.365 19.941l7.041 15.301c3.471 7.515 12.423 10.835 19.951 7.36l12.072-5.556a94.973 94.973 0 0 0 20.32 18.756l-4.611 12.481c-1.404 3.758-1.238 7.845.446 11.501a14.983 14.983 0 0 0 8.444 7.828l15.794 5.821a14.997 14.997 0 0 0 11.506-.438 14.934 14.934 0 0 0 7.812-8.451l4.619-12.497c9.103.991 18.39.668 27.632-1.04l5.55 12.06c3.47 7.521 12.428 10.843 19.958 7.366l15.294-7.043c7.539-3.472 10.838-12.414 7.365-19.946l-5.558-12.062c7.301-5.915 13.591-12.754 18.756-20.318l12.489 4.624a14.986 14.986 0 0 0 11.517-.457c3.639-1.678 6.408-4.685 7.804-8.445l5.836-15.796c2.868-7.774-1.127-16.447-8.903-19.312m-82.728 39.277c-7.887 3.627-16.248 5.471-24.867 5.471-23.158 0-44.366-13.585-54.051-34.598-13.72-29.789-.65-65.182 29.136-78.893 7.876-3.632 16.243-5.465 24.854-5.465 23.156 0 44.377 13.574 54.062 34.583 13.714 29.795.65 65.191-29.134 78.902"/></g><defs><path id="G" d="M0 0h1000v2000H0z"/></defs><clipPath id="H"><use xlink:href="#G" overflow="visible"/></clipPath><circle clip-path="url(#H)" fill="#53585F" cx="607.811" cy="1146.237" r="26.994"/><circle clip-path="url(#H)" fill="#53585F" cx="797.678" cy="965.005" r="13.561"/><circle clip-path="url(#H)" fill="#53585F" cx="854.132" cy="821.895" r="13.56"/><defs><path id="I" transform="rotate(97.464 289.17 756.437)" d="M230.069 697.307h118.209v118.177H230.069z"/></defs><clipPath id="J"><use xlink:href="#I" overflow="visible"/></clipPath><g clip-path="url(#J)"><defs><path id="K" transform="rotate(97.464 289.17 756.437)" d="M230.069 697.291h118.209V815.5H230.069z"/></defs><clipPath id="L"><use xlink:href="#K" overflow="visible"/></clipPath><g clip-path="url(#L)"><defs><path id="M" d="M0 0h1000v2000H0z"/></defs><clipPath id="N"><use xlink:href="#M" overflow="visible"/></clipPath><path clip-path="url(#N)" fill="#0D4972" d="M270.173 694.635c-.51.239-.901.661-1.089 1.191-.397 1.079.218 2.374 1.234 2.747.745.303 2.74 1.22 5.177 3.066l1.137.856-36.332 27.917-.534-1.325c-1.337-3.326-1.573-5.703-1.582-5.809a2.15 2.15 0 0 0-2.333-1.919c-1.099.1-2.05 1.146-1.933 2.349.035.317 4.183 31.83 49.112 32.056l1.331.006-.28 1.302a93.79 93.79 0 0 0-1.192 7.017c-4.683 35.734 15.806 52.291 16.681 52.975a2.117 2.117 0 0 0 2.606.023c.136-.092.258-.222.42-.408.595-.756.4-2.35-.38-2.976-.377-.305-2.381-1.976-4.826-5.115l-.669-.861 40.129-30.821.661.872c2.4 3.181 3.486 5.518 3.681 5.952.472 1.092 1.746 1.607 2.826 1.143.16-.07.309-.16.462-.278.407-.32.706-.87.784-1.465a2.064 2.064 0 0 0-.127-1.062c-.495-1.152-12.545-28.249-53.992-30.423l-1.331-.071.337-1.288a84.3 84.3 0 0 0 2.095-10.521c4.637-35.382-20.159-45.097-20.417-45.196a2.144 2.144 0 0 0-1.656.066m49.094 68.282c4.664 2.336 8.884 5.228 12.489 8.539l2.264 2.52-39.529 30.258-1.673-2.743c-2.317-4.398-4.026-9.227-5.094-14.398l-.637-2.158 30.142-23.016 2.038.998zm-9.04-3.63l1.981.625-25.557 19.632-.092-2.08c-.299-6.483.38-13.646 1.983-20.761l.208-.886.901.038c7.349.288 14.27 1.444 20.576 3.432m-21.706-26.416c-.155 5.504-1.126 11.512-2.884 17.826l-.225.783-.81.012c-6.586.073-12.65-.523-18.02-1.774l-3.647-.86 25.823-19.766-.237 3.779zm-6.998-25.126c3.158 4.246 5.282 9.296 6.303 14.914l.053 1.446-29.624 22.953-1.277-.589c-5.292-2.46-9.622-5.8-12.896-9.944l-1.368-1.679 37.091-28.934 1.718 1.833z"/></g></g><defs><path id="O" d="M250.997 1356H662v412H250.997z"/></defs><clipPath id="P"><use xlink:href="#O" overflow="visible"/></clipPath><g clip-path="url(#P)"><defs><path id="Q" d="M251 1356h411v412H251z"/></defs><clipPath id="R"><use xlink:href="#Q" overflow="visible"/></clipPath><path clip-path="url(#R)" fill="#008CCD" d="M521.841 1383.108l-9.43 9.464c-30.824-30.898-81-30.898-111.825 0l-9.43-9.464c36.028-36.148 94.669-36.148 130.685 0m-114.373 16.339l9.429 9.464c21.83-21.859 57.386-21.859 79.205 0l9.453-9.464c-27.045-27.086-71.044-27.086-98.087 0m16.839 16.904l9.452 9.464c12.542-12.595 32.985-12.595 45.502 0l9.478-9.477c-17.791-17.809-46.678-17.809-64.432.013m97.534 324.552l-9.43-9.476c-30.824 30.898-81 30.898-111.825 0l-9.43 9.476c36.039 36.137 94.693 36.137 130.685 0m-16.3-16.35l-9.429-9.452c-21.829 21.848-57.397 21.848-79.203 0l-9.453 9.452c27.055 27.085 71.054 27.085 98.085 0m-16.827-16.892l-9.441-9.476c-12.552 12.596-32.997 12.596-45.526 0l-9.453 9.487c17.767 17.799 46.654 17.799 64.42-.011m146.278-211.149l-9.465 9.464c30.825 30.91 30.825 81.185 0 112.073l9.465 9.463c36.027-36.125 36.027-94.899 0-131m-16.334 16.338l-9.43 9.465c21.806 21.858 21.806 57.513 0 79.372l9.43 9.476c27.031-27.109 27.031-71.216 0-98.313m-16.839 16.879l-9.465 9.452c12.564 12.596 12.564 33.089 0 45.637l9.465 9.487c17.755-17.832 17.755-46.778 0-64.576m-323.791 97.759l9.477-9.452c-30.849-30.911-30.849-81.196-.024-112.096l-9.453-9.453c-36.037 36.138-36.037 94.911 0 131.001m16.323-16.326l9.429-9.464c-21.806-21.871-21.806-57.525 0-79.373l-9.429-9.476c-27.031 27.11-27.031 71.215 0 98.313m16.851-16.88l9.441-9.464c-12.564-12.584-12.564-33.077 0-45.637l-9.452-9.476c-17.756 17.822-17.756 46.768.011 64.577m216.639-84.623l-1.045 1.437 6.329 8.182 3.663-2.261c-.786-.259-1.573-.777-2.207-1.589.012 0-4.85-3.367-6.74-5.769m37.471 52.347c0 60.221-48.685 109.048-108.784 109.048-60.098 0-108.83-48.804-108.83-109.048 0-60.209 48.72-109.059 108.83-109.059 60.086 0 108.784 48.85 108.784 109.059m-180.684-67.52a18.73 18.73 0 0 1 2.818-1.13s9.077-.93 5.272-6.639c-2.818 2.437-5.542 5.027-8.09 7.769m14.948 79.455s-1.444-4.778-8.713-4.778c0 0-4.379-4.791-8.278-4.791 0 0-1.443-13.442-8.736-10.547 0 0-.986-5.309-3.898-4.803 0 0-1.903-5.238-5.32-3.838l-3.898-2.389s-.34.635-.916 1.565c-.94 5.509-1.468 11.124-1.468 16.892 0 27.837 11.672 53.016 30.343 70.826.024-.824.247-1.694.728-2.413 0 0 1.938-3.849-.505-7.168 0 0 2.442-3.379 2.442-7.722 0 0-2.442-7.604 3.875-8.582 0 0 8.737 0 4.38-15.385 0 0-.481-4.297 2.937-8.604-.037-.093 3.356-9.227-2.973-8.263m5.872-96.405a96.044 96.044 0 0 0-12.412 8.923c2.23.235 11.496.895 12.107-4.391l.305-4.532zm131.881 39.599c1.843.482 3.828-.07 5.296-.695-14.854-28.804-43.554-49.332-77.302-52.593-7.797 7.604 1.761 10.794 1.761 10.794 3.417 2.366 10.639-1.965 10.639-1.965 2.959 3.354-8.232 8.156-8.232 8.156-6.282.46-11.144 3.838-11.144 3.838-2.923-4.32-5.836-.989-5.836-.989-2.396 2.896 3.406 4.367 3.406 4.367 3.875.931 2.912 3.343 1.42 4.756-1.42 1.436-7.727 0-7.727 0-3.405 1.931-.986 8.628-.986 8.628h2.924c9.688 2.849 10.205-4.309 10.205-4.309 2.877 0 3.887-4.802 3.887-4.802 2.431 2.413 8.255-1.437 8.255-1.437.481 1.919 3.37 4.791 3.37 4.791 4.38 1.447 5.342 3.367 5.342 3.367-4.379.965-.481 2.848-.481 2.848 5.849-2.413 1.444-5.709 1.444-5.709-11.119-5.297-6.305-6.732-6.305-6.732 1.973 3.354 9.746 4.79 9.746 4.79.963 6.228 3.875 7.192 3.875 7.192 3.381 1.448 4.345-1.424 4.345-1.424-3.382-.965-3.899-3.826-3.899-3.826-.928-2.896 3.417-.977 3.417-.977 3.898 5.721 12.154 5.262 12.154 5.262 5.308-.459 3.874 9.088 3.874 9.088-5.823 3.859-17.015-2.861-17.015-2.861.987 3.366-3.358 3.803-3.358 3.803-4.402-5.227-11.166-2.837-11.166-2.837 1.444-2.39-1.011-6.228-1.011-6.228-3.852-.965-10.157.941-10.157.941-4.862 1.907-14.104 2.413-14.104 2.413-4.356 0-7.268 8.628-7.268 8.628-9.724 4.297-10.686 12.938-10.686 12.938 0 5.297-.963 10.547-.963 10.547-3.405 5.25 6.283 11.041 6.283 11.041 5.859 11.029 13.116 6.238 13.116 6.238 5.848 2.378 18.459-2.4 18.459-2.4 1.468 4.778 8.255 3.354 8.255 3.354 2.406 1.424 1.444 6.25 1.444 6.25-3.369 5.685 2.936 11.041 2.936 11.041 9.688 11.041 3.335 13.891 3.335 13.891-6.752 6.709-2.372 12.501-2.372 12.501 4.826 10.57 4.826 19.599 4.826 19.599 16.511 2.389 22.334-10.052 22.334-10.052 5.344 0 5.344-4.757 5.344-4.757 0-5.756 3.417-8.122 3.417-8.122 7.761-5.272 6.317-15.844 6.317-15.844-.964-6.203 1.443-11.995 1.443-11.995 9.195-10.546 8.737-26.354 8.737-26.354-3.875 1.918-6.306.458-6.306.458-8.725-8.651-19.411-27.355-19.411-27.355 10.217 4.32 18.449 24.46 18.449 24.46 5.847-2.884 7.726-8.133 7.726-8.133 5.675-5.027-.537-12.042-2.052-13.584"/></g><defs><path id="S" transform="rotate(156.039 481.912 121.17)" d="M422.789 62.076h118.21v118.177h-118.21z"/></defs><clipPath id="T"><use xlink:href="#S" overflow="visible"/></clipPath><g clip-path="url(#T)"><defs><path id="U" transform="rotate(156.039 481.912 121.17)" d="M422.79 62.059h118.209v118.209H422.79z"/></defs><clipPath id="V"><use xlink:href="#U" overflow="visible"/></clipPath><g clip-path="url(#V)"><defs><path id="W" d="M0 0h1000v2000H0z"/></defs><clipPath id="X"><use xlink:href="#W" overflow="visible"/></clipPath><path clip-path="url(#X)" fill="#0D4972" d="M524.688 72.748a2.079 2.079 0 0 0-1.584-.308c-1.128.224-1.912 1.424-1.7 2.486.13.793.388 2.974.084 6.016l-.139 1.416-42.766-16.447.853-1.146c2.141-2.876 4.045-4.317 4.131-4.379a2.149 2.149 0 0 0 .421-2.992c-.659-.885-2.047-1.152-3.013-.424-.252.195-24.979 20.166-1.746 58.622l.689 1.139-1.257.44a94.56 94.56 0 0 0-6.609 2.641c-32.934 14.636-36.378 40.752-36.506 41.856a2.117 2.117 0 0 0 1.34 2.236c.149.069.324.104.567.146.955.113 2.213-.885 2.341-1.877.064-.481.445-3.062 1.849-6.785l.386-1.019 47.224 18.171-.4 1.019c-1.463 3.707-2.891 5.852-3.16 6.245-.686.972-.46 2.327.498 3.007.144.1.298.181.478.25.485.18 1.111.149 1.659-.095.358-.159.647-.394.84-.663.725-1.022 17.563-25.434-2.192-61.934l-.633-1.173 1.274-.384a84.385 84.385 0 0 0 10.07-3.698c32.609-14.491 27.97-40.716 27.92-40.987a2.135 2.135 0 0 0-.919-1.379m-32.667 77.495c.438 5.197.171 10.306-.774 15.109l-.969 3.245-46.431-17.953 1.468-2.858c2.544-4.27 5.774-8.247 9.63-11.854l1.509-1.669 35.356 13.72.211 2.26zm-1.616-9.607l.5 2.017-30.078-11.572 1.727-1.163c5.376-3.635 11.842-6.791 18.75-9.133l.864-.285.438.789c3.585 6.422 6.207 12.93 7.799 19.347m11.224-32.294c-4.778 2.736-10.412 5.041-16.715 6.833l-.785.217-.432-.685c-3.497-5.582-6.15-11.067-7.882-16.301l-1.167-3.562 30.331 11.729-3.35 1.769zm17.791-19.073c-1.977 4.908-5.178 9.354-9.44 13.155l-1.206.798-35.032-13.309-.163-1.397c-.66-5.798-.068-11.235 1.761-16.189l.72-2.043 44.028 16.564-.668 2.421z"/></g></g><defs><path id="Y" d="M0 0h1000v2000H0z"/></defs><clipPath id="Z"><use xlink:href="#Y" overflow="visible"/></clipPath><circle clip-path="url(#Z)" fill="#53585F" cx="347.07" cy="1416.58" r="13.561"/><circle clip-path="url(#Z)" fill="#53585F" cx="440.817" cy="1283.829" r="13.561"/><path fill="#008CCD" d="M753.067 1281.651l-62.05-62.05c16.645-19.136 26.723-44.104 26.723-71.392 0-60.067-48.858-108.869-108.87-108.869-60.068 0-108.87 48.857-108.87 108.869 0 60.011 48.858 108.87 108.87 108.87 27.288 0 52.255-10.077 71.391-26.722l62.05 62.049c1.472 1.473 3.453 2.265 5.378 2.265s3.906-.736 5.379-2.265c2.944-2.942 2.944-7.811-.001-10.755zM515.229 1148.21c0-51.633 42.008-93.584 93.584-93.584 51.632 0 93.583 42.008 93.583 93.584s-41.951 93.642-93.583 93.642c-51.576 0-93.584-42.01-93.584-93.642z"/></svg>